<svg width="65" height="49" viewBox="0 0 65 49" fill="none" xmlns="http://www.w3.org/2000/svg">
<path d="M0.256105 39.9177C1.02265 37.5131 3.27467 36.0525 5.02866 35.2505C8.6321 33.6032 12.5839 30.0995 16.1188 26.0985L15.5914 25.7746C15.1376 25.4959 14.9955 24.9019 15.2742 24.4481C15.553 23.994 16.1467 23.8524 16.6008 24.1308L17.3911 24.616C17.853 24.0624 18.3053 23.5028 18.7467 22.9402L17.962 22.4303C17.5154 22.1401 17.3887 21.5426 17.6791 21.096C17.9693 20.6492 18.567 20.5225 19.0133 20.8129L19.9211 21.403C20.4294 20.7187 20.9187 20.035 21.3857 19.3576L20.712 18.9392C20.2594 18.6581 20.1205 18.0635 20.4017 17.611C20.683 17.1583 21.2775 17.0194 21.73 17.3007L22.4583 17.7533C23.7297 15.7895 24.7829 13.9231 25.5304 12.3083C25.6384 12.0186 26.5586 9.3617 24.7242 7.52747C24.3475 7.1508 24.3475 6.54003 24.7243 6.16349C25.1009 5.78682 25.7116 5.78682 26.0883 6.16349C28.0656 8.14091 27.8991 10.6608 27.6041 12.0377C28.7571 12.365 30.9256 12.908 33.3616 13.1518C39.1403 13.7304 41.9802 12.2255 43.3443 10.8613C48.301 5.90475 48.6224 0.96538 48.6249 0.919423C48.6439 0.514949 48.9134 0.165574 49.2996 0.0443334C49.686 -0.0769071 50.1066 0.0558864 50.3533 0.377078L64.8005 19.1851C64.9645 19.3989 65.0318 19.6713 64.9859 19.9368C64.9401 20.2022 64.7853 20.4363 64.5591 20.5826C64.2892 20.7572 37.4744 38.0886 29.9179 42.6765C23.7679 46.4105 15.4093 48.1801 9.00954 48.18C7.07705 48.18 5.3223 48.0185 3.86209 47.701C3.62215 47.6489 3.41115 47.5073 3.27201 47.3049L0.273753 42.9435C0.271721 42.9406 0.270324 42.9371 0.268166 42.934C0.244933 42.8994 0.223859 42.8632 0.205197 42.8257C0.201642 42.8189 0.198723 42.8119 0.195422 42.8048C0.178918 42.7695 0.16457 42.7333 0.152382 42.696C0.151113 42.6923 0.149209 42.6887 0.148066 42.6851C0.147305 42.6824 0.145656 42.6767 0.144514 42.6731C0.143371 42.6691 0.142099 42.665 0.140957 42.6609C0.0812888 42.4583 -0.201181 41.3517 0.256105 39.9177ZM41.9317 28.8404C34.5513 33.5586 29.5004 36.7464 26.9192 38.3152C20.7692 42.0493 12.4106 43.8186 6.01103 43.8186C4.99273 43.8186 4.02573 43.7725 3.12322 43.6837L4.6412 45.8916C7.64618 46.4676 11.7781 46.3662 16.0622 45.6046C20.9096 44.7428 25.4749 43.1173 28.9167 41.0277C35.6735 36.9254 57.923 22.572 62.6334 19.5304L60.5793 16.8563C53.7033 21.2938 48.3902 24.7048 45.111 26.806C44.9499 26.9092 44.7699 26.9584 44.5916 26.9584C44.2739 26.9584 43.9628 26.8015 43.7788 26.5141C43.4913 26.0656 43.6218 25.4692 44.0705 25.1817C45.523 24.251 47.3753 23.0628 49.5851 21.6427C48.5756 19.7837 48.0453 17.701 48.0453 15.5635C48.0453 12.5982 49.0854 9.7098 50.9738 7.43023C51.3138 7.01991 51.9219 6.96304 52.332 7.30277C52.742 7.64262 52.7992 8.25073 52.4593 8.66079C50.8568 10.595 49.9742 13.0465 49.9742 15.5634C49.9742 17.3297 50.4014 19.0507 51.2137 20.5955C53.6039 19.0583 56.3469 17.2918 59.4004 15.3213L50.1373 3.26184C49.5475 5.40875 48.1259 8.80767 44.7087 12.2249C39.8026 17.131 29.868 14.7135 26.9285 13.8538C26.1796 15.366 25.2094 17.04 24.0906 18.7669L27.3675 20.8025C27.8201 21.0836 27.959 21.6782 27.6778 22.1307C27.4951 22.4248 27.18 22.5863 26.8575 22.5863C26.6836 22.5863 26.5079 22.5393 26.3495 22.4409L23.0185 20.3717C22.542 21.0643 22.0457 21.7597 21.5341 22.4515L24.1383 24.1441C24.5849 24.4345 24.7116 25.0319 24.4213 25.4786C24.2364 25.7629 23.9273 25.9176 23.6117 25.9176C23.4316 25.9176 23.2493 25.8672 23.087 25.7615L20.3648 23.9921C19.9329 24.5463 19.493 25.0944 19.0479 25.6334L21.4695 27.1204C21.9234 27.3991 22.0654 27.9931 21.7868 28.447C21.6047 28.7435 21.2881 28.9069 20.964 28.9069C20.7918 28.9069 20.6176 28.8608 20.4601 28.7642L17.7839 27.121C12.508 33.1677 8.39331 35.8335 5.83063 37.0049C2.33751 38.6019 1.91196 40.6341 1.92605 41.5814C4.90488 42.0988 8.91242 41.9811 13.0635 41.2431C17.911 40.3814 22.4762 38.7558 25.9177 36.6664C28.4863 35.1056 33.5246 31.9256 40.8927 27.2153C41.3416 26.9284 41.9378 27.0595 42.2248 27.5084C42.5116 27.9572 42.3805 28.5535 41.9317 28.8404Z" fill="white"/>
</svg>
